<svg xmlns="http://www.w3.org/2000/svg" viewBox="0 0 270.62 40.14"><defs><style>.cls-1{fill:#efefef;}</style></defs><title>asc1</title><g id="Layer_2" data-name="Layer 2"><g id="Layer_1-2" data-name="Layer 1"><path class="cls-1" d="M4.71,27.85H0L8.58,3.49H14l8.59,24.36H17.9L11.39,8.48H11.2Zm.16-9.55H17.71v3.54H4.87Z"/><path class="cls-1" d="M35.19,28.17a6.92,6.92,0,0,1-3.86-1.11,7.46,7.46,0,0,1-2.68-3.21,11.94,11.94,0,0,1-1-5.11,11.88,11.88,0,0,1,1-5.15,7.33,7.33,0,0,1,2.71-3.17A7,7,0,0,1,35.2,9.34a5.69,5.69,0,0,1,2.64.54,5.08,5.08,0,0,1,1.64,1.3,7.7,7.7,0,0,1,.94,1.42h.18V3.49h4.32V27.85H40.68V25h-.26a7.36,7.36,0,0,1-1,1.41,5.38,5.38,0,0,1-1.67,1.27A5.84,5.84,0,0,1,35.19,28.17Zm1.2-3.53a3.68,3.68,0,0,0,2.33-.75,4.5,4.5,0,0,0,1.46-2.07,8.67,8.67,0,0,0,.5-3.11,8.73,8.73,0,0,0-.49-3.08,4.41,4.41,0,0,0-1.45-2,4.18,4.18,0,0,0-4.75,0,4.52,4.52,0,0,0-1.45,2.07,8.58,8.58,0,0,0-.49,3,8.71,8.71,0,0,0,.49,3.05A4.62,4.62,0,0,0,34,23.87,3.71,3.71,0,0,0,36.39,24.64Z"/><path class="cls-1" d="M55,7a2.5,2.5,0,0,1-1.76-.69,2.14,2.14,0,0,1-.73-1.64A2.17,2.17,0,0,1,53.27,3,2.6,2.6,0,0,1,56.8,3a2.17,2.17,0,0,1,.73,1.66A2.14,2.14,0,0,1,56.8,6.3,2.49,2.49,0,0,1,55,7ZM52.87,27.85V9.58h4.3V27.85Z"/><path class="cls-1" d="M83.79,10A3.23,3.23,0,0,0,82.4,7.59a5.45,5.45,0,0,0-3.2-.87,6,6,0,0,0-2.36.42,3.44,3.44,0,0,0-1.52,1.13,2.78,2.78,0,0,0-.53,1.62,2.45,2.45,0,0,0,.35,1.32,2.91,2.91,0,0,0,1,.95,6.66,6.66,0,0,0,1.34.65c.49.17,1,.32,1.49.44l2.28.57a15.05,15.05,0,0,1,2.66.87,9.31,9.31,0,0,1,2.3,1.38,6.2,6.2,0,0,1,1.61,2,6.1,6.1,0,0,1,.59,2.76,6.57,6.57,0,0,1-1.09,3.76,7.13,7.13,0,0,1-3.16,2.53,12.29,12.29,0,0,1-5,.91,12.59,12.59,0,0,1-4.93-.88,7.29,7.29,0,0,1-3.26-2.56,7.67,7.67,0,0,1-1.27-4.12H74a3.69,3.69,0,0,0,.78,2.12,4.2,4.2,0,0,0,1.8,1.26,7,7,0,0,0,2.49.41,6.77,6.77,0,0,0,2.53-.43,4,4,0,0,0,1.71-1.21A2.94,2.94,0,0,0,84,20.8a2.37,2.37,0,0,0-.56-1.57,4.06,4.06,0,0,0-1.53-1.05,16.58,16.58,0,0,0-2.29-.76l-2.77-.71a11.09,11.09,0,0,1-4.75-2.35,5.38,5.38,0,0,1-1.74-4.19A6.26,6.26,0,0,1,71.49,6.4a7.68,7.68,0,0,1,3.19-2.52A11.18,11.18,0,0,1,79.26,3a10.77,10.77,0,0,1,4.55.9,7.46,7.46,0,0,1,3.07,2.49A6.38,6.38,0,0,1,88,10Z"/><path class="cls-1" d="M104.59,20V9.41h4.3V27.68h-4.17V24.43h-.19a5.51,5.51,0,0,1-2,2.51,6,6,0,0,1-3.47,1,6.15,6.15,0,0,1-3.17-.8,5.47,5.47,0,0,1-2.14-2.34A8.19,8.19,0,0,1,92.94,21V9.41h4.31v11a3.9,3.9,0,0,0,1,2.76,3.26,3.26,0,0,0,2.5,1,3.93,3.93,0,0,0,1.84-.47A3.74,3.74,0,0,0,104,22.31,4.36,4.36,0,0,0,104.59,20Z"/><path class="cls-1" d="M123.28,9.41v3.33h-10.5V9.41ZM115.37,5h4.3V22.18a2.67,2.67,0,0,0,.27,1.33,1.41,1.41,0,0,0,.71.62,2.74,2.74,0,0,0,1,.17,4.38,4.38,0,0,0,.75-.06l.51-.11.73,3.37c-.23.08-.56.16-1,.26a8.92,8.92,0,0,1-1.55.17,7,7,0,0,1-2.92-.5,4.46,4.46,0,0,1-2-1.68,5,5,0,0,1-.74-2.86Z"/><path class="cls-1" d="M133,28a7.49,7.49,0,0,1-3.12-.62,5.08,5.08,0,0,1-2.19-1.85,5.44,5.44,0,0,1-.8-3,5.19,5.19,0,0,1,.57-2.56A4.38,4.38,0,0,1,129,18.38a7.83,7.83,0,0,1,2.23-.93A17.81,17.81,0,0,1,133.8,17c1.07-.12,1.93-.22,2.6-.31a3.68,3.68,0,0,0,1.46-.43,1,1,0,0,0,.45-.91v-.07a2.7,2.7,0,0,0-.79-2.08,3.28,3.28,0,0,0-2.3-.74,4.08,4.08,0,0,0-2.5.69,3.38,3.38,0,0,0-1.24,1.63l-4-.57A6.39,6.39,0,0,1,129,11.42a7,7,0,0,1,2.67-1.69,10.53,10.53,0,0,1,3.5-.56,11.25,11.25,0,0,1,2.63.31,7.17,7.17,0,0,1,2.39,1A5.22,5.22,0,0,1,142,12.42a6.26,6.26,0,0,1,.66,3V27.68h-4.14V25.17h-.14a5.22,5.22,0,0,1-2.87,2.48A7.25,7.25,0,0,1,133,28Zm1.12-3.16a4.56,4.56,0,0,0,2.25-.52A3.81,3.81,0,0,0,137.81,23a3.58,3.58,0,0,0,.52-1.87V19a2.26,2.26,0,0,1-.69.31c-.32.09-.68.18-1.07.25l-1.18.19-1,.14a7.68,7.68,0,0,0-1.73.43,2.93,2.93,0,0,0-1.2.83,2.06,2.06,0,0,0-.44,1.36,2,2,0,0,0,.87,1.79A3.74,3.74,0,0,0,134.09,24.88Z"/><path class="cls-1" d="M147.8,27.68V9.41H152v3h.19A4.62,4.62,0,0,1,153.88,10a4.71,4.71,0,0,1,2.79-.86l.8,0c.3,0,.55.05.75.09v4a4.92,4.92,0,0,0-.86-.17,9.05,9.05,0,0,0-1.14-.07,4.3,4.3,0,0,0-2.11.5,3.81,3.81,0,0,0-1.47,1.4,3.88,3.88,0,0,0-.54,2.06V27.68Z"/><path class="cls-1" d="M165.17,34.53a9,9,0,0,1-1.62-.14,6.19,6.19,0,0,1-1.19-.32l1-3.35A5.79,5.79,0,0,0,165,31a2.1,2.1,0,0,0,1.3-.46,3.28,3.28,0,0,0,1-1.48l.37-1L161,9.41h4.57l4.21,13.79H170l4.22-13.79h4.58L171.5,29.89a8.25,8.25,0,0,1-1.36,2.49A5.63,5.63,0,0,1,168.08,34,7,7,0,0,1,165.17,34.53Z"/><path class="cls-1" d="M190,28a8.88,8.88,0,0,1-4.64-1.17,8,8,0,0,1-3-3.3,10.75,10.75,0,0,1-1.07-4.95,10.85,10.85,0,0,1,1.07-5,7.9,7.9,0,0,1,3-3.3,9.71,9.71,0,0,1,9.28,0,7.9,7.9,0,0,1,3,3.3,11,11,0,0,1,1.07,5,10.87,10.87,0,0,1-1.07,4.95,8,8,0,0,1-3,3.3A8.91,8.91,0,0,1,190,28Zm0-3.45a3.67,3.67,0,0,0,2.43-.8,4.82,4.82,0,0,0,1.46-2.16,9,9,0,0,0,.48-3,9.1,9.1,0,0,0-.48-3,4.91,4.91,0,0,0-1.46-2.17,3.67,3.67,0,0,0-2.43-.81,3.77,3.77,0,0,0-2.47.81,4.83,4.83,0,0,0-1.46,2.17,9.1,9.1,0,0,0-.48,3,9,9,0,0,0,.48,3,4.74,4.74,0,0,0,1.46,2.16A3.76,3.76,0,0,0,190,24.58Z"/><path class="cls-1" d="M222.61.13a6,6,0,0,1,4.76,2.27,4.25,4.25,0,0,1,1.15,2.92A3.82,3.82,0,0,1,228,7c-.79,1-1.49,1.27-2.11.73a1.25,1.25,0,0,1,0-1.93c.52-.63.41-1.39-.32-2.28a4.1,4.1,0,0,0-3-1.48,8.29,8.29,0,0,0-5.56,1.89,14.83,14.83,0,0,0-4.63,5.94A18.68,18.68,0,0,0,210.85,17a12.55,12.55,0,0,0,1.71,6.47,7.79,7.79,0,0,0,4.56,2.82,10.75,10.75,0,0,0,7.45-2.7c.7-.66,1-.94,1-.54,0,.59.31,1.06-.22,1.84q-4,3.36-7,3.36a8.74,8.74,0,0,1-6.8-2.87q-2.5-2.84-2.62-8.22a22.74,22.74,0,0,1,1.71-8.06,15.54,15.54,0,0,1,4.89-6.4A12,12,0,0,1,222.61.13Z"/><path class="cls-1" d="M229.12,17.61a1.56,1.56,0,0,1,.94-.37,1.86,1.86,0,0,1,.33,0A.72.72,0,0,1,231,18c1.63-.21,2.65-.12,3.07.29s.44,1.34.13,2.73a15.3,15.3,0,0,0-.66,3.89c0,.58.28.88.7.89a3.37,3.37,0,0,0,1.71-1q1.14-1,3.27-3.18c.72-.23,1.09,0,1.09.66a1.63,1.63,0,0,1-.06.45q-2.4,2.46-3.87,3.78a4.17,4.17,0,0,1-2.4,1.31,2,2,0,0,1-1.74-.89,5.07,5.07,0,0,1-.42-3,18.36,18.36,0,0,1,.55-2.45,5.09,5.09,0,0,0,.34-2c-.11-.23-.73-.25-1.85-.07l-5.58,5.47c-.69.08-1.11-.18-1.11-.95l4.92-4.76a.84.84,0,0,1-.39-.7A1.24,1.24,0,0,1,229.12,17.61Z"/><path class="cls-1" d="M241.51,18.71a5.05,5.05,0,0,1,2.27-.47,4,4,0,0,1,2.05.68c.09-.45.33-.68.73-.69a.71.71,0,0,1,.65.89l-1.23,6c0,.76.31.9,1,.44a37.66,37.66,0,0,0,4.88-3.87c.79-.21.82-.1.82.53a2.28,2.28,0,0,1-.07.54,40.79,40.79,0,0,1-4.91,4.36,2.43,2.43,0,0,1-1.36.6.93.93,0,0,1-.23,0,2,2,0,0,1-1.13-.34,1.36,1.36,0,0,1-.66-1.15,3.59,3.59,0,0,1-3.21,1.44A2.74,2.74,0,0,1,238.58,26a5.64,5.64,0,0,1-.29-1.76,5.82,5.82,0,0,1,.38-2A8.43,8.43,0,0,1,240,19.91,5.2,5.2,0,0,1,241.51,18.71Zm1.13,1.37A4.79,4.79,0,0,0,240.25,23c-.46,1.42-.26,2.34.59,2.76a2.37,2.37,0,0,0,2.37-.3,3.81,3.81,0,0,0,1.64-2.53l.55-2.46A2.35,2.35,0,0,0,242.64,20.08Z"/><path class="cls-1" d="M258.11.54A2,2,0,0,1,259.49,0q3.84.26,4.05,4.47,0,4.76-4.49,11l-4.28,5.83q1.48,2.61,3.5,2.73c.6,0,2-1.13,3.39-2.85.8-.21.76.52.56,1.61q-2.54,2.67-3.9,2.72a4.8,4.8,0,0,1-2.85-1,19.76,19.76,0,0,1-.5,10.14c-1.29,3.66-2.72,5.49-4.31,5.49-1.18,0-1.76-.78-1.76-2.34a10.5,10.5,0,0,1,.18-1.79l2.69-12c-1-.48-1.24-1-.64-1.65l1.71-1.66,3.29-14.6C256.8,3,257.46,1.18,258.11.54Zm-4.54,23-2.87,12.7c-.27,1.31-.28,2,0,2.09.47.14,1-.31,1.53-1.34a20.65,20.65,0,0,0,1.42-3.29,14.43,14.43,0,0,0,.73-3.74,17.91,17.91,0,0,0-.23-4.16ZM260,1.74c-.61-.1-1.08.44-1.4,1.64l-3.46,14.41q1.2-1.58,2.84-4a28.7,28.7,0,0,0,2.53-4.43,14.16,14.16,0,0,0,1.13-3.53,6,6,0,0,0-.13-2.67A1.92,1.92,0,0,0,260,1.74Z"/><path class="cls-1" d="M265.08,8.92c.64,0,.93.25.87.67L265.28,13l3.05,0c.67,0,1,.24.91.8a.84.84,0,0,1-.94,1h-3.49l-1.75,7.91c-.44,2-.2,3,.75,3.12.44,0,1.14-.33,2.11-1.12s2.18-1.9,3.65-3.35c.7-.23,1.05,0,1.05.8a1.32,1.32,0,0,1-.07.42,50,50,0,0,1-4.92,4.25,4.48,4.48,0,0,1-2.46.85c-1.39,0-2.13-.92-2.23-2.67a19,19,0,0,1,.65-3.94l2.55-11.5A.84.84,0,0,1,265.08,8.92Z"/></g></g></svg>