<svg xmlns="http://www.w3.org/2000/svg" viewBox="0 0 107.14 133.66"><defs><style>.cls-1{fill:#143d21;}</style></defs><title>tgl</title><g id="Layer_2" data-name="Layer 2"><g id="Layer_1-2" data-name="Layer 1"><path class="cls-1" d="M18.48,133.62c-.62.11-1.26-.46-1.62-.94-4.19-5.56-5.52-12.81-5.21-19.66a2.14,2.14,0,0,0-1.51-2.29,1.51,1.51,0,0,0-1.2.38,2.75,2.75,0,0,0-1,2c-.35,5.82-2.62,11.61-5.51,16.63-.31.54-.79,1.15-1.4,1.05a1.09,1.09,0,0,1-.79-1.18,3.34,3.34,0,0,1,.57-1.43A39,39,0,0,0,5.5,115.14a13.67,13.67,0,0,1,1.08-4.21,3.66,3.66,0,0,1,7,1c.61,2.94.2,6,.77,9a22.49,22.49,0,0,0,5.14,11.2.47.47,0,0,1,.13.24.53.53,0,0,1-.06.24,2.31,2.31,0,0,1-.6.85A1,1,0,0,1,18.48,133.62Z"/><path class="cls-1" d="M29.06,133.41a1.28,1.28,0,0,1-1-.36,28.47,28.47,0,0,1-6.91-11,40.79,40.79,0,0,1-2-9.2c-.33-3.06-.4-6.13-1-9.17-.26-1.29-.3-2.49-1.45-3.4-2.31-1.84-5.26-.12-7.15,1.48A27.19,27.19,0,0,0,4.73,107a19.89,19.89,0,0,0-1.84,3.24c-.38.84-.55,2.29-1.37,2.81-.41.25-1.23.24-1.4-.3a1.51,1.51,0,0,1,.1-.91,26.7,26.7,0,0,1,7.64-11.38,12.41,12.41,0,0,1,4.55-2.73,6.08,6.08,0,0,1,5.13.64c1.87,1.31,2.54,3.75,2.92,6,.79,4.58,1,9.26,1.92,13.81s2.8,9.1,6.28,12.17a4.42,4.42,0,0,1,1.22,1.37C30.22,132.44,29.94,133.36,29.06,133.41Z"/><path class="cls-1" d="M41.71,133.65c-.59.06-1.08-.83-1.42-1.2a40.59,40.59,0,0,1-2.8-3.48c-1.23-1.68-2.5-3.37-3.58-5.15A39.54,39.54,0,0,1,28,105.89c-.23-4-1-8-3.43-11.21a10.16,10.16,0,0,0-9.44-3.59c-3.82.51-7.21,2.74-10,5.41C4,97.6,2.76,98.85,1.19,99c-.48,0-1.1-.19-1.06-.66a.92.92,0,0,1,.32-.54,35.4,35.4,0,0,1,8.93-6.63,17,17,0,0,1,7.06-2.23,12.32,12.32,0,0,1,11.17,7c1.49,3,1.77,6.49,2.19,9.82a44.65,44.65,0,0,0,2.44,10,40.45,40.45,0,0,0,5,9.33c1.57,2.2,3.35,4.24,5.09,6.31a1.83,1.83,0,0,1,.41.66,1.5,1.5,0,0,1-.57,1.37A.92.92,0,0,1,41.71,133.65Z"/><path class="cls-1" d="M54.38,133.07a17.55,17.55,0,0,1-4.52-3.13c-5.23-6.22-8.34-13.84-10-21.72-1.57-7.36-3.56-15.33-8.55-21.2-6.45-7.58-17.79-8.6-26-3.34-1.51,1-3.57,2.13-4.9.92a23.24,23.24,0,0,1,19-6.22c10.17,1.4,17.69,9.8,20.67,19.26,2,6.33,2.17,13.11,4.59,19.33a34.7,34.7,0,0,0,4.61,8.29C50.6,127,55.15,130,55.54,132,55.76,133.18,55.21,133.36,54.38,133.07Z"/><path class="cls-1" d="M62.68,133a1.65,1.65,0,0,1-.39-.29,3.86,3.86,0,0,1-.69-1.39,24.15,24.15,0,0,0-6.74-10.15c-1.38-1.23-3-2.47-3.32-4.29s.83-3.54,2-4.92c2.53-2.89,6.26-5.35,10-4.46A20.5,20.5,0,0,1,68,109.6c7.2,3.67,16.12,1.88,22.1-3.3a23.3,23.3,0,0,0,7.54-20.91,22.74,22.74,0,0,0-5.4-11.31c-3.12-3.53-7.46-5.7-10.83-9A26.17,26.17,0,0,1,74,43.27a14.36,14.36,0,0,1,2.66-7,13,13,0,0,1,9.12-4.5c7.38-.69,14.9,3.32,20.26,8.1.41.36.85.83.75,1.37a1.15,1.15,0,0,1-1.41.76,3.49,3.49,0,0,1-1.49-1c-4.29-3.86-9.59-6.94-15.35-7.29A13.52,13.52,0,0,0,81,35.23c-3,1.66-4.35,4.45-4.93,7.67a22.66,22.66,0,0,0,3.35,16.35c2.84,4.3,7,7.43,11,10.57a23.63,23.63,0,0,1,5,4.8,24.07,24.07,0,0,1,3.46,6.79c3,9.23-.35,20.28-7.68,26.58-6.48,5.57-16.25,7.24-24,3.58-1.93-.91-3.84-2.16-6-2.06-2.67.13-4.72,2.31-6.47,4.33a4,4,0,0,0-1.15,2.07c-.14,1.32,1,2.38,2,3.27a31,31,0,0,1,8.2,11.8c.27.69.44,1.63-.18,2A1,1,0,0,1,62.68,133Z"/><path class="cls-1" d="M69.28,132.72a2.58,2.58,0,0,1-.71-1.27,18.75,18.75,0,0,1-.24-2.13,36.44,36.44,0,0,0-1.45-4.85c-.43-1.63-.4-3.58.81-4.76a4.67,4.67,0,0,1,3.91-1c4.32.58,8,3.54,12.3,4.35,10.72,2,17.09-8.4,20.55-16.91a3.49,3.49,0,0,1,.91-1.5,1.16,1.16,0,0,1,1.6,0c.37.5.1,1.2-.18,1.75a61.61,61.61,0,0,1-3.48,6.26,42.28,42.28,0,0,1-3.22,5.38c-2.61,3.3-6.14,6.06-10.25,6.94-5.93,1.28-11.34-1.14-16.49-3.74-1.19-.6-3.29-1.15-4.3,0-.81.93-.35,2.35.12,3.49A18.47,18.47,0,0,1,71,132.06a1.12,1.12,0,0,1-.36,1,.85.85,0,0,1-.73,0A1.64,1.64,0,0,1,69.28,132.72Z"/><path class="cls-1" d="M105.38,77a.45.45,0,0,1-.1-.13c-.75-1.35-1.48-2.73-2.36-4A38,38,0,0,0,100,69.1a45.58,45.58,0,0,0-7.81-6.52c-2.84-2-6-4.2-7.15-7.66a18,18,0,0,1-.77-6.4c.09-2.32.55-4.82,2.26-6.4a6.73,6.73,0,0,1,4.9-1.57A7.85,7.85,0,0,1,97,43.12c1.72,2,2.08,4.82,3.14,7.25a13.14,13.14,0,0,0,4.65,5.6,4,4,0,0,1,1.51,1.4c.3.62,0,1.57-.65,1.66a1.63,1.63,0,0,1-1.2-.55c-2.57-2.2-5.22-4.52-6.49-7.65-.86-2.12-1.06-4.58-2.53-6.33A5.49,5.49,0,0,0,91,42.56a4.42,4.42,0,0,0-4.2,2.82,14.56,14.56,0,0,0-.44,6.19c.47,3.24,1.69,5.34,2.35,5.91a35.41,35.41,0,0,0,3.46,2.46A41.25,41.25,0,0,1,101.82,68a35.33,35.33,0,0,1,4.66,6.67,2.31,2.31,0,0,1,.31,1.1c0,.64-.61.91-1.12,1.15A.33.33,0,0,1,105.38,77Z"/><path class="cls-1" d="M36.73,83.83A4.53,4.53,0,0,1,34,82.32c-1.23-1.5-1.37-3.58-1.52-5.51s-.47-4-1.92-5.33-3.22-1.35-5-1.39c-7.87-.17-15.69,1.26-23.35,3a1.48,1.48,0,0,1-1.19,0A1.06,1.06,0,0,1,1,71.59a3.38,3.38,0,0,1,2.11-1A155.57,155.57,0,0,1,21.7,68a20.71,20.71,0,0,1,6.94.38,7.87,7.87,0,0,1,5.26,4.22c1.08,2.54.3,5.58,1.4,8.11a2.06,2.06,0,0,0,1,1.17,1.94,1.94,0,0,0,1.12,0,4.11,4.11,0,0,0,2.9-2.38c.88-2.08-.41-5.1-1.39-7-3.31-6.28-4.24-9.9-6.11-17.11l-.46-1.78a40.15,40.15,0,0,0-3.52-9.54A10.4,10.4,0,0,0,23.6,39.8a9.5,9.5,0,0,0-6-.53c-3,1.39-5.17,5.83-6,8.85C11,50,10.8,52,9.86,53.66c-1.52,2.71-4.65,4.2-7.75,4.48A1.58,1.58,0,0,1,.75,57.8c-.43-.52,0-1.36.56-1.67a5.59,5.59,0,0,1,2-.34,6.12,6.12,0,0,0,4.25-2.44,15.17,15.17,0,0,0,1.92-5.18,21.19,21.19,0,0,1,3.68-7.63,8.77,8.77,0,0,1,9-3.36c5.76,1.27,9,6,10.76,11.22,1.23,3.63,1.92,7.36,3,11a82.3,82.3,0,0,0,4.22,11c1,2.21,2.11,4.46,2.28,6.89s-.85,5.12-3,6.15A4.42,4.42,0,0,1,36.73,83.83Z"/><path class="cls-1" d="M14.29,64.34a1.57,1.57,0,0,1-.43,0,2.15,2.15,0,0,1-1.49-1.57,4.6,4.6,0,0,1,0-1.81,18.76,18.76,0,0,1,4-8.88c2-2.22,5.78-3.74,8.24-1.35a8.13,8.13,0,0,1,1.74,2.84c1,2.5,2.42,8.23-.45,10a3.37,3.37,0,0,1-3.06.09,8.38,8.38,0,0,1-2.55-1.89,2.09,2.09,0,0,0-1.19-.73,1.69,1.69,0,0,0-1.24.55c-.62.57-1.09,1.29-1.7,1.87A2.92,2.92,0,0,1,14.29,64.34Zm7.37-12.8-.58,0a4.25,4.25,0,0,0-3.17,1.49,27.29,27.29,0,0,0-1.65,3l-.16.33a30.11,30.11,0,0,0-1.59,4.94,5.67,5.67,0,0,0-.16.86A.65.65,0,0,0,14.8,62c1.87-2.18,3.71-4,5.8-2.78a4.28,4.28,0,0,1,1.18,1.22,3.35,3.35,0,0,0,1.47,1.35A2.5,2.5,0,0,0,25,61.69c.37-.12.53-.84.41-1.71-.1-.61-.18-1.19-.25-1.72-.4-2.8-.63-4.49-1.38-5.79A2.18,2.18,0,0,0,21.66,51.54Z"/><path class="cls-1" d="M61.86,103.64a24.14,24.14,0,0,1-8.42-1.21c-3.71-1.25-7.87-4.86-6.16-9.25.58-1.49,1.62-2.55,2-4.21a15.7,15.7,0,0,0,.09-5.34c-.64-4.64-2.45-9-3.81-13.45-1.4-4.62-1.57-9.29-2.32-14-1.08-6.86-2.7-13.86-6.68-19.55-6.42-9.17-18.29-12.06-27-4.21a29.49,29.49,0,0,0-6.77,9.69A3.19,3.19,0,0,1,1.6,43.74c-.61.33-1.59,0-1.6-.68a1.43,1.43,0,0,1,.17-.61A30.5,30.5,0,0,1,9.46,30.09,20.14,20.14,0,0,1,24.12,26c6,.86,11.2,4.95,14.52,10s5,11.05,6.1,17c1.2,6.48,1.72,13.12,3.61,19.45s5,13,2.46,19.07c-.88,2.1-2.42,4.53-1.14,6.42a4.75,4.75,0,0,0,2.2,1.54,25.59,25.59,0,0,0,22.9-1.59c3.38-2,6.48-5.38,6.37-9.33-.07-2.65-1.57-5-3.29-7.06-3.57-4.19-8.3-7.2-11.77-11.46a29.21,29.21,0,0,1-6.3-14.1c-1.1-7.48.84-15,2.89-22.31A43.47,43.47,0,0,1,66.78,22.9c2-3.29,4.94-6.14,8.64-7.17a17.54,17.54,0,0,1,9.59.55c7.61,2.28,14.58,7,20.8,11.8.55.42,1.08,1.33.48,1.68a1.08,1.08,0,0,1-.79,0,16.24,16.24,0,0,1-4.61-2.65A66.54,66.54,0,0,0,87.62,19.6c-4-1.64-8.48-2.8-12.53-1.35-9.55,3.44-10.75,16.21-12.4,24.62-1.14,5.81-1.94,12,.16,17.69C65.57,68,72.39,72.93,77.7,78.38a18.83,18.83,0,0,1,5.17,8.18c1.46,5.67-2.44,10.3-7.05,13A29.42,29.42,0,0,1,61.86,103.64Z"/><path class="cls-1" d="M60,98.06a5,5,0,0,1-1.23-.24c-2.06-.69-4.21-3.66-3.08-5.83.75-1.43,2.56-2.41,3.77-3.43a3.43,3.43,0,0,0,1-1.1,2.33,2.33,0,0,0-.07-1.88c-.73-1.68-2.46-2.72-3.62-4.09a19.43,19.43,0,0,1-3.91-7.77c-.48-1.93-.84-4.91.89-6.3,2.72-2.18,6.78.1,8.39,2.57,1.31,2,1.91,4.32,3,6.42a20.09,20.09,0,0,0,4.76,5.93,32.12,32.12,0,0,1,2.59,2.21C75.08,87.23,74,91,71.41,93.26S63.8,98.39,60,98.06Zm-5.5-27.52c-.13,3,3.16,8.85,4.18,10,1.2,1.33,2.65,2.49,3.46,4.09,1.51,3-.57,5.06-2.82,6.73-.61.46-1.73,1-1.82,1.86a2.2,2.2,0,0,0,.38,1.33c2.43,3.8,9.82-1,12.11-2.85,5.45-4.47-2.42-8-4.81-11.32-2.07-2.85-2.88-6.33-4.79-9.24A5.1,5.1,0,0,0,57,68.74C55.26,68.47,54.59,69.26,54.53,70.54Z"/><path class="cls-1" d="M50.48,44.9a4.2,4.2,0,0,1-1.17-.13,6.33,6.33,0,0,1-3.76-3.11A22.85,22.85,0,0,1,43.73,37a68.07,68.07,0,0,0-9.85-19.08c-1.94-2.65-4.15-5.24-7.13-6.61a11.36,11.36,0,0,0-11.2,1.13c-2.55,1.86-4.17,4.68-6.19,7.11a26.55,26.55,0,0,1-6.42,5.58c-.68.42-1.73.74-2.16.06s.33-1.5,1-2a42.91,42.91,0,0,0,7.41-6.71c2.23-2.55,4.24-5.45,7.24-7,4.85-2.54,11.07-.8,15.24,2.75,4.54,3.87,7.29,9.51,10,14.69,2,3.81,3.92,7.41,4.56,10.87.57,3,3.2,6.73,6.54,4.17a8.1,8.1,0,0,0,2.08-2.66,20.93,20.93,0,0,0,2.49-9.18c.17-4.79-1.3-9.69,0-14.32A14.6,14.6,0,0,1,67.51,6c4.11-1.16,8.49-.7,12.75-1a33.6,33.6,0,0,0,13-3.83A3.45,3.45,0,0,1,95,.58c.58,0,1.19.51,1.1,1.09s-.52.75-.93,1A37.62,37.62,0,0,1,80.07,7.16c-3.16.24-6.35,0-9.49.45s-6.35,1.45-8.53,3.75c-3,3.16-3.47,7.94-3.28,12.3C59,28.23,59.66,33,58,37.37c-.84,2.2-1.91,4.56-3.76,6.08A6.09,6.09,0,0,1,50.48,44.9Z"/><path class="cls-1" d="M49.71,25a7.71,7.71,0,0,1-4.65-1.65c-4-3.15-4-9.38-7.49-13.06a15.52,15.52,0,0,0-5.43-3.35,62.5,62.5,0,0,0-9.81-3.21c-1.59-.38-3.24-.6-4.85-.87l-2.36-.38c-.52-.08-1-.13-1.56-.19-.32,0-.9.06-.92-.34a6.67,6.67,0,0,1,0-1.34c0-.16.06-.41.21-.51.35-.23,1.05,0,1.45,0,.74.08,1.48.18,2.21.31,1.45.25,2.89.57,4.33.86.83.17,1.67.33,2.49.54A60.39,60.39,0,0,1,34,5.51l.73.31a11.71,11.71,0,0,1,2.17,1.11,14,14,0,0,1,4.35,5.12l.2.37a26.24,26.24,0,0,1,2,4.51c.66,1.88,1.14,3.24,2.54,4.42A6,6,0,0,0,50.1,23a2,2,0,0,0,.79-.19c.67-.36.56-1.11.34-1.72-.8-2.11-2-4.1-2.25-6.35a10.67,10.67,0,0,1,2.55-7.23A40,40,0,0,1,58.28,1a1.61,1.61,0,0,1,.84-.45,1,1,0,0,1,1.05,1,1.76,1.76,0,0,1-.57,1.41,6.48,6.48,0,0,1-1.29.9A17.66,17.66,0,0,0,54.49,7a11,11,0,0,0-3.27,7.57,11.83,11.83,0,0,0,1.42,4.77,6.56,6.56,0,0,1,.78,2.14A3.11,3.11,0,0,1,53,23.62,3.73,3.73,0,0,1,49.81,25Z"/></g></g></svg>